# AST/ASF file generated using VICON BodyLanguage
# -----------------------------------------------
:version 1.10
:name VICON
:units
  mass 1.0
  length 0.45
  angle deg
:documentation
   .ast/.asf automatically generated from VICON data using
   VICON BodyBuilder and BodyLanguage model FoxedUp or BRILLIANT.MOD
:root
   order TX TY TZ RX RY RZ
   axis XYZ
   position 0 0 0  
   orientation 0 0 0 
:bonedata
  begin
     id 1 
     name lhipjoint
     direction 0.643822 -0.745931 0.170529 
     length 2.62041 
     axis 0 0 0  XYZ
  end
  begin
     id 2 
     name lfemur
     direction 0.34202 -0.939693 0  
     length 7.92179  
     axis 0 0 20  XYZ
    dof rx ry rz
    limits (-160.0 20.0)
           (-70.0 70.0)
           (-60.0 70.0)
  end
  begin
     id 3 
     name ltibia
     direction 0.34202 -0.939693 0   
     length 8.16326   
     axis 0 0 20   XYZ
    dof rx
    limits (-10.0 170.0)
  end
  begin
     id 4 
     name lfoot
     direction 0.0837341 -0.230058 0.969568   
     length 1.94455   
     axis -90 7.62852e-016 20   XYZ
    dof rx rz
    limits (-45.0 90.0)
           (-70.0 20.0)
  end
  begin
     id 5 
     name ltoes
     direction 1.5356e-011 -4.21695e-011 1   
     length 0.978804   
     axis -90 7.62852e-016 20   XYZ
    dof rx
    limits (-90.0 20.0)
  end
  begin
     id 6 
     name rhipjoint
     direction -0.656883 -0.73503 0.168037   
     length 2.65927  
     axis 0 0 0  XYZ 
  end
  begin
     id 7 
     name rfemur
     direction -0.34202 -0.939693 0   
     length 7.58746   
     axis 0 0 -20   XYZ
    dof rx ry rz
    limits (-160.0 20.0)
           (-70.0 70.0)
           (-70.0 60.0)
  end
  begin
     id 8 
     name rtibia
     direction -0.342117 -0.939657 0   
     length 8.27303   
     axis 0 0 -20   XYZ
    dof rx
    limits (-10.0 170.0)
 end
 begin
     id 9 
     name rfoot
     direction -0.0685862 -0.188439 0.979687   
     length 2.13088  
     axis -90 -7.62852e-016 -20   XYZ
    dof rx rz
    limits (-45.0 90.0)
           (-20.0 70.0)
  end
  begin
     id 10 
     name rtoes
     direction -1.53538e-011 -4.21514e-011 1   
     length 1.07326   
     axis -90 -7.62852e-016 -20   XYZ
    dof rx
    limits (-90.0 20.0)
  end
  begin
     id 11 
     name lowerback
     direction -0.0358974 0.997216 0.065354   
     length 1.87174   
     axis 0 0 0   XYZ
    dof rx ry rz
    limits (-20.0 45.0)
           (-30.0 30.0)
           (-30.0 30.0)
  end
  begin
     id 12 
     name upperback
     direction 0.0202028 0.998565 0.0495864   
     length 1.8684   
     axis 0 0 0   XYZ
    dof rx ry rz
    limits (-20.0 45.0)
           (-30.0 30.0)
           (-30.0 30.0)
  end
  begin
     id 13 
     name thorax
     direction 0.0366367 0.999163 0.0182199   
     length 1.87747   
     axis 0 0 0   XYZ
    dof rx ry rz
    limits (-20.0 45.0)
           (-30.0 30.0)
           (-30.0 30.0)
  end
  begin
     id 14 
     name lowerneck
     direction 0.0284381 0.999578 -0.00598196   
     length 1.84583   
     axis 0 0 0   XYZ
    dof rx ry rz
    limits (-20.0 45.0)
           (-30.0 30.0)
           (-30.0 30.0)
  end
  begin
     id 15 
     name upperneck
     direction -0.0888142 0.993333 -0.0734973   
     length 1.84467   
     axis 0 0 0   XYZ
    dof rx ry rz
    limits (-20.0 45.0)
           (-30.0 30.0)
           (-30.0 30.0)
  end
  begin
     id 16
     name head
     direction -0.0296474 0.999102 -0.0302696  
     length 1.86566  
     axis 0 0 0   XYZ
    dof rx ry rz
    limits (-20.0 45.0)
           (-30.0 30.0)
           (-30.0 30.0)
  end
  begin
     id 17 
     name lclavicle
     direction 0.933925 0.35714 -0.0153523  
     length 3.93442  
     axis 0 0 0   XYZ
    dof ry rz
    limits (-20.0 10.0)
           (0.0 20.0)
  end
  begin
     id 18 
     name lhumerus
     direction 1 -4.48967e-011 2.12044e-027   
     length 5.78174   
     axis 180 -30 -90   XYZ
    dof rx ry rz
    limits (-60.0 90.0)
           (-90.0 90.0)
           (-90.0 90.0)
  end
  begin
     id 19
     name lradius
     direction 1 -4.48972e-011 6.45701e-027   
     length 3.53992   
     axis 180 -30 -90   XYZ
    dof rx
    limits (-10.0 170.0)
  end
  begin
     id 20
     name lwrist
     direction 1 -4.48981e-011 1.70244e-026   
     length 1.76996   
     axis -1.1226e-014 90 90   XYZ
    dof ry
    limits (-180.0 0.0)
 end
  begin
     id 21 
     name lhand
     direction 1 -4.4879e-011 3.40615e-026   
     length 0.550243   
     axis -2.17265e-014 90 90   XYZ
    dof rx rz
    limits (-90.0 90.0)
           (-45.0 45.0)
  end
  begin
     id 22 
     name lfingers
     direction 1 -4.49029e-011 6.80911e-026   
     length 0.44362   
     axis -4.34526e-014 90 90   XYZ
    dof rx
    limits (0.0 90.0)
  end
  begin
     id 23
     name lthumb
     direction 0.707107 -6.34923e-011 0.707107   
     length 0.636952   
     axis -90 45 -1.62303e-014   XYZ
    dof rx rz
    limits (-45.0 45.0)
           (-45.0 45.0)
  end
  begin
     id 24 
     name rclavicle
     direction -0.950832 0.305106 0.0531883   
     length 3.96125  
     axis 0 0 0   XYZ 
    dof ry rz
    limits (-10.0 20.0)
           (-20.0 0.0)
  end
  begin
     id 25 
     name rhumerus
     direction -1 -4.48961e-011 -6.07392e-030  
     length 5.79352   
     axis 180 30 90   XYZ
    dof rx ry rz
    limits (-90.0 60.0)
           (-90.0 90.0)
           (-90.0 90.0)
  end
  begin
     id 26 
     name rradius
     direction -1 -4.48964e-011 5.97548e-027   
     length 3.37081   
     axis 180 30 90   XYZ
    dof rx
    limits (-10.0 170.0)
  end
  begin
     id 27 
     name rwrist
     direction -1 -4.49021e-011 1.7023e-026   
     length 1.68541   
     axis -1.1226e-014 -90 -90   XYZ
    dof ry
    limits (-180.0 0.0)
  end
  begin
     id 28
     name rhand
     direction -1 -4.48867e-011 3.40563e-026   
     length 0.679827   
     axis -2.17265e-014 -90 -90   XYZ
    dof rx rz
    limits (-90.0 90.0)
           (-45.0 45.0)
  end
  begin
     id 29
     name rfingers
     direction -1 -4.49024e-011 6.80917e-026   
     length 0.548094   
     axis -4.34526e-014 -90 -90   XYZ
    dof rx
    limits (0.0 90.0)
  end
  begin
     id 30
     name rthumb
     direction -0.707107 -6.3488e-011 0.707107   
     length 0.786956   
     axis -90 -45 1.62303e-014   XYZ
    dof rx rz
    limits (-45.0 45.0)
           (-45.0 45.0)
  end
:hierarchy
  begin
    root lhipjoint rhipjoint lowerback
    lhipjoint lfemur
    lfemur ltibia
    ltibia lfoot
    lfoot ltoes
    rhipjoint rfemur
    rfemur rtibia
    rtibia rfoot
    rfoot rtoes
    lowerback upperback
    upperback thorax
    thorax lowerneck lclavicle rclavicle
    lowerneck upperneck
    upperneck head
    lclavicle lhumerus
    lhumerus lradius
    lradius lwrist
    lwrist lhand lthumb
    lhand lfingers
    rclavicle rhumerus
    rhumerus rradius
    rradius rwrist
    rwrist rhand rthumb
    rhand rfingers
  end

#!OML:ASF H:\Terrain\Patient Classification 1\PaulMetrics\Match1Take2\PaulMetrics.ASF
:FULLY-SPECIFIED
:DEGREES
212
root 11.2752 18.0145 -31.9731 -149.575 -81.9757 167.698
lowerback -6.96133 1.60833 -2.51191
upperback -6.20481 2.04437 0.829204
thorax -2.64146 1.03691 2.35765
lowerneck 7.1347 17.1931 5.01144
upperneck 1.9176 23.3425 -14.3807
head 1.75022 11.7391 -4.73558
rclavicle -5.96354e-015 -2.38542e-015
rhumerus -54.6522 13.1159 -82.4939
rradius 39.4537
rwrist -16.9984
rhand -17.0068 -37.5907
rfingers 7.12502
rthumb 9.2288 -67.3687
lclavicle -5.96354e-015 -2.38542e-015
lhumerus -50.4618 -12.5619 84.989
lradius 61.4527
lwrist 8.57163
lhand -24.8889 -9.53897
lfingers 7.12502
lthumb 1.61887 20.4346
rfemur -25.7721 1.46168 16.8524
rtibia 28.9601
rfoot -17.8857 -16.7438
rtoes -10.6049
lfemur -42.6253 -0.845028 -19.1123
ltibia 59.0719
lfoot -8.6584 -7.90353
ltoes -22.1668
213
root 11.2266 18.0397 -32.0101 -148.365 -83.0971 166.466
lowerback -6.61795 1.64674 -1.9088
upperback -6.32817 2.0578 0.452028
thorax -2.9203 1.01784 1.61895
lowerneck 7.02736 17.086 5.69995
upperneck 2.0325 23.281 -14.4546
head 1.88041 11.7085 -4.8166
rclavicle -2.48481e-017 7.95139e-015
rhumerus -54.859 12.6689 -83.1171
rradius 40.4315
rwrist -17.3341
rhand -16.4357 -37.2544
rfingers 7.12502
rthumb 9.77982 -67.0073
lclavicle -2.48481e-017 7.95139e-015
lhumerus -50.6297 -13.2678 84.6333
lradius 60.8026
lwrist 8.62693
lhand -23.9093 -9.86386
lfingers 7.12502
lthumb 2.56494 20.1005
rfemur -25.1333 1.53117 17.1932
rtibia 28.5673
rfoot -18.0524 -17.664
rtoes -11.7655
lfemur -43.093 -0.329336 -19.1699
ltibia 58.1622
lfoot -8.64633 -8.04118
ltoes -19.672
214
root 11.1778 18.0439 -32.0484 -147.671 -84.1335 165.518
lowerback -6.41537 1.62073 -2.23454
upperback -6.16813 2.0525 0.794602
thorax -2.89254 1.03918 2.15095
lowerneck 6.67873 17.0082 5.64458
upperneck 2.32765 23.2127 -14.6683
head 2.03439 11.6474 -4.82351
rclavicle -2.88238e-015 -3.97569e-015
rhumerus -54.9255 13.1675 -83.1525
rradius 41.6344
rwrist -17.4313
rhand -16.0231 -37.2785
rfingers 7.12502
rthumb 10.1778 -67.0123
lclavicle -2.88238e-015 -3.97569e-015
lhumerus -50.6203 -13.1341 85.1191
lradius 60.0946
lwrist 8.07507
lhand -23.6386 -10.0889
lfingers 7.12502
lthumb 2.82637 19.8721
rfemur -24.2969 1.82814 17.5594
rtibia 28.2503
rfoot -18.2269 -18.5341
rtoes -12.4853
lfemur -43.1612 0.129309 -19.2184
ltibia 57.1674
lfoot -8.78322 -7.80297
ltoes -16.5745
215
root 11.1214 18.0364 -32.0832 -146.579 -85.0741 164.472
lowerback -6.60482 1.62466 -2.40796
upperback -6.10445 2.07477 0.974846
thorax -2.73706 1.0595 2.44176
lowerneck 6.53958 16.8529 6.04057
upperneck 2.47585 23.0727 -15.1053
head 2.18088 11.5688 -4.97311
rclavicle 2.86995e-014 -1.07344e-014
rhumerus -55.059 13.5244 -83.4501
rradius 42.8233
rwrist -16.8507
rhand -15.7889 -38.4056
rfingers 7.12502
rthumb 10.4038 -68.1282
lclavicle 2.86995e-014 -1.07344e-014
lhumerus -50.9284 -13.0396 85.4024
lradius 59.7075
lwrist 7.54401
lhand -23.7719 -10.1471
lfingers 7.12502
lthumb 2.69765 19.8156
rfemur -23.8228 1.84966 17.9849
rtibia 28.0215
rfoot -18.5812 -19.2212
rtoes -13.9059
lfemur -43.4229 0.891855 -19.5108
ltibia 56.0404
lfoot -9.24207 -7.18594
ltoes -18.4271
216
root 11.0654 18.0375 -32.1128 -142.949 -85.9104 160.997
lowerback -6.83843 1.65407 -2.6423
upperback -6.1394 2.12765 1.03266
thorax -2.66051 1.09436 2.64154
lowerneck 6.49341 16.666 6.55212
upperneck 2.65913 22.903 -15.507
head 2.32771 11.4792 -5.13827
rclavicle -6.55989e-015 1.55052e-014
rhumerus -55.3385 13.8296 -83.8288
rradius 43.4624
rwrist -17.8374
rhand -17.4908 -37.119
rfingers 7.12502
rthumb 8.76176 -66.9171
lclavicle -6.55989e-015 1.55052e-014
lhumerus -51.3195 -13.0728 85.6146
lradius 59.4633
lwrist 7.1924
lhand -23.133 -9.74186
lfingers 7.12502
lthumb 3.31466 20.2121
rfemur -23.5281 1.86475 18.1787
rtibia 27.8881
rfoot -19.1138 -19.6821
rtoes -13.6969
lfemur -43.838 1.65112 -19.9758
ltibia 54.821
lfoot -9.49934 -6.61452
ltoes -20.7548
217
root 11.0116 18.0421 -32.1418 -137.101 -86.7269 155.311
lowerback -6.92239 1.69168 -2.66392
upperback -6.23166 2.17598 0.934557
thorax -2.7106 1.11797 2.55519
lowerneck 6.34773 16.4952 7.07535
upperneck 2.95178 22.7579 -15.6802
head 2.49905 11.3953 -5.22882
rclavicle 6.11263e-015 1.23246e-014
rhumerus -55.6647 14.0826 -84.391
rradius 44.6238
rwrist -19.0451
rhand -18.1535 -36.6223
rfingers 7.12502
rthumb 8.12218 -66.4462
lclavicle 6.11263e-015 1.23246e-014
lhumerus -51.6208 -13.3368 85.6069
lradius 59.0593
lwrist 6.8053
lhand -22.0944 -9.25443
lfingers 7.12502
lthumb 4.31762 20.6816
rfemur -23.2432 2.18013 18.2718
rtibia 27.7545
rfoot -19.6343 -20.1881
rtoes -11.8774
lfemur -44.3208 2.17774 -20.3318
ltibia 53.5422
lfoot -9.51763 -6.05667
ltoes -21.3508
218
root 10.9577 18.044 -32.1731 -130.999 -87.662 149.492
lowerback -7.10027 1.68258 -2.44536
upperback -6.31906 2.15244 0.882524
thorax -2.68997 1.09597 2.38218
lowerneck 6.02623 16.3552 7.72246
upperneck 3.25658 22.6716 -16.0716
head 2.74774 11.3315 -5.3734
rclavicle -7.20594e-015 -1.31198e-014
rhumerus -55.8022 14.4854 -85.0713
rradius 45.6681
rwrist -19.7665
rhand -18.4455 -36.81
rfingers 7.12502
rthumb 7.84036 -66.6446
lclavicle -7.20594e-015 -1.31198e-014
lhumerus -51.8447 -13.4806 85.4716
lradius 58.5151
lwrist 6.46105
lhand -21.4046 -9.67051
lfingers 7.12502
lthumb 4.98371 20.2509
rfemur -23.0167 2.55199 18.6302
rtibia 27.4663
rfoot -20.1285 -20.8192
rtoes -11.2342
lfemur -44.9472 2.71321 -20.4582
ltibia 52.2313
lfoot -9.61402 -5.36739
ltoes -22.7848
219
root 10.9067 18.0459 -32.2024 -118.688 -88.6141 137.303
lowerback -7.04462 1.64813 -2.23016
upperback -6.36274 2.09658 0.91751
thorax -2.75506 1.06237 2.29306
lowerneck 5.71336 16.2521 8.23907
upperneck 3.41279 22.6086 -16.5033
head 2.94422 11.2827 -5.52177
rclavicle -1.55797e-014 -4.37326e-015
rhumerus -55.8353 14.9492 -85.6026
rradius 46.4238
rwrist -19.9924
rhand -18.6314 -36.8002
rfingers 7.12502
rthumb 7.66096 -66.6414
lclavicle -1.55797e-014 -4.37326e-015
lhumerus -52.0214 -13.4336 85.3638
lradius 57.9928
lwrist 6.16699
lhand -21.5066 -9.10607
lfingers 7.12502
lthumb 4.88523 20.8176
rfemur -22.5402 2.93006 19.0832
rtibia 27.0007
rfoot -20.8337 -21.3429
rtoes -9.95356
lfemur -45.4034 3.25816 -20.5219
ltibia 50.8928
lfoot -9.86102 -4.83022
ltoes -24.3172
220
root 10.8481 18.0521 -32.2217 -81.8738 -89.1536 100.401
lowerback -6.90628 1.70673 -1.99377
upperback -6.34399 2.16575 0.809818
thorax -2.80069 1.08848 2.04812
lowerneck 5.68652 16.0464 8.93295
upperneck 3.37266 22.405 -17.007
head 3.04622 11.1882 -5.76172
rclavicle 8.10048e-015 5.1684e-015
rhumerus -55.8576 15.0176 -85.9807
rradius 47.1401
rwrist -20.0349
rhand -18.6881 -36.6682
rfingers 7.12502
rthumb 7.60618 -66.5115
lclavicle 8.10048e-015 5.1684e-015
lhumerus -52.188 -13.6245 85.2098
lradius 57.4655
lwrist 5.82702
lhand -22.0719 -8.00794
lfingers 7.12502
lthumb 4.33938 21.9276
rfemur -21.7551 3.3947 19.3007
rtibia 26.4228
rfoot -22.0684 -21.3298
rtoes -5.48627
lfemur -45.5507 3.80408 -20.766
ltibia 49.4817
lfoot -10.1547 -4.23851
ltoes -25.0894
